<svg xmlns="http://www.w3.org/2000/svg" viewBox="0 0 100.61 83.69"><defs><style>.cls-1{fill:none;stroke:#231815;stroke-linecap:round;stroke-miterlimit:10;stroke-width:3px;}.cls-2{fill:#f2a1af;}.cls-3{fill:#ed7b8a;}</style></defs><title>资源 2</title><g id="图层_2" data-name="图层 2"><g id="图层_1-2" data-name="图层 1"><path class="cls-1" d="M16,18.07C9.55,23-6.95,38.19,6.85,64.32c.07.14.17.28.24.43,1.18,2.53,13.07,17.89,43.56,17.43,31.94-.49,43.5-14.86,47.6-28.63,3.67-12.33-5.07-28-14.67-35.18A3.2,3.2,0,0,1,82.85,14c1.7-2.48,2.93-6.55-.59-9.77C76.6-.94,70.61,8.44,70.61,8.44c.19,1.65-20.73-6.86-38,.94a3.24,3.24,0,0,1-4.51-2.44c-.48-2.7-1.95-5.49-6-5.44a6.2,6.2,0,0,0-3.22,1C16.93,3.76,11.8,6.4,16.73,13.68A3.23,3.23,0,0,1,16,18.07Z"/><path class="cls-1" d="M30.28,34a6.62,6.62,0,0,1,6.88-2.6"/><path class="cls-1" d="M61.91,31.7s5.39.1,7.09,2.8"/><path class="cls-1" d="M28.88,45.77S34,42.28,39.56,43.88"/><path class="cls-1" d="M60.32,43.46s7.08-1.18,10,2.71"/><path class="cls-1" d="M43.65,54.66c0,.29,4.94,5.19,6.08-1.61a0,0,0,0,1,.07,0c.25,1.13,1.81,6.9,6.33,2.2"/><path class="cls-1" d="M48.24,61.54s2.1,2.1,4.39,1.1"/><path class="cls-2" d="M15.3,53.36s2.6-9.18,12.28-5.89c0,0,10,4.19,3,11.08A11.3,11.3,0,0,1,18,58.15S15.8,57.65,15.3,53.36Z"/><path class="cls-3" d="M17.85,54s1.89-6.71,9-4.3c0,0,7.29,3.06,2.19,8.09a8.27,8.27,0,0,1-9.19-.3S18.21,57.08,17.85,54Z"/><path class="cls-1" d="M20.69,50.29s-2.7,4.29-2.4,5.29"/><path class="cls-1" d="M25.08,51.39s-2.4,3.59-2,4.19"/><path class="cls-1" d="M29.1,52.53s-1.5,3.89-2.1,4.19"/><path class="cls-2" d="M67.41,53.91S70,44.73,79.69,48c0,0,10,4.19,3,11.08a11.31,11.31,0,0,1-12.58-.4S67.91,58.2,67.41,53.91Z"/><path class="cls-3" d="M70,54.5s1.89-6.71,9-4.3c0,0,7.29,3.06,2.18,8.08A8.24,8.24,0,0,1,71.92,58S70.32,57.63,70,54.5Z"/><path class="cls-1" d="M81.26,52.53s-2.69,4.29-2.39,5.29"/><path class="cls-1" d="M77.19,51.94s-2.4,3.59-2,4.19"/><path class="cls-1" d="M73.22,51.33s-1.5,3.89-2.1,4.19"/></g></g></svg>